<?xml version="1.0" standalone="no"?>
<!DOCTYPE svg PUBLIC "-//W3C//DTD SVG 20010904//EN"
 "http://www.w3.org/TR/2001/REC-SVG-20010904/DTD/svg10.dtd">
<svg version="1.0" xmlns="http://www.w3.org/2000/svg"
 width="1080.000000pt" height="1080.000000pt" viewBox="0 0 1080.000000 1080.000000"
 preserveAspectRatio="xMidYMid meet">
<metadata>
Created by potrace 1.14, written by Peter Selinger 2001-2017
</metadata>
<g transform="translate(0.000000,1080.000000) scale(0.100000,-0.100000)"
fill="#000000" stroke="none">
<path d="M0 5413 l0 -5388 1060 1060 1060 1060 0 3437 0 3438 1808 0 c1123 0
1869 -4 1972 -10 752 -47 1343 -286 1801 -727 100 -97 147 -149 259 -285 3 -4
638 625 1410 1397 l1405 1405 -5388 0 -5387 0 0 -5387z"/>
<path d="M9392 9367 l-1404 -1404 75 -114 c203 -309 346 -645 457 -1069 157
-601 201 -1377 119 -2105 -103 -916 -400 -1623 -889 -2116 -416 -419 -913
-653 -1591 -751 l-154 -22 -1942 -3 -1942 -4 -3 156 -3 155 -1045 -1045 -1045
-1045 5388 0 5387 0 0 5385 c0 2962 -1 5385 -3 5385 -1 0 -634 -632 -1405
-1403z"/>
<path d="M3890 5578 l0 -1663 1362 1362 1362 1362 -39 58 c-57 82 -216 239
-308 301 -151 104 -333 177 -544 219 -79 15 -181 17 -960 20 l-873 4 0 -1663z"/>
<path d="M5262 5237 l-1372 -1372 0 -148 0 -147 783 0 c450 0 829 4 892 10
379 35 647 151 875 380 204 203 346 490 415 835 14 72 30 151 35 177 5 27 15
131 22 233 32 498 -58 1004 -235 1327 l-43 77 -1372 -1372z"/>
<path d="M0 10 c0 -5 5 -10 11 -10 5 0 7 5 4 10 -3 6 -8 10 -11 10 -2 0 -4 -4
-4 -10z"/>
</g>
</svg>
